<?xml version="1.0" encoding="utf-8"?>
<!-- Generator: Adobe Illustrator 22.0.0, SVG Export Plug-In . SVG Version: 6.00 Build 0)  -->
<svg version="1.1" id="Layer_1" xmlns="http://www.w3.org/2000/svg" xmlns:xlink="http://www.w3.org/1999/xlink" x="0px" y="0px"
	 viewBox="0 0 16 16" style="enable-background:new 0 0 16 16;" xml:space="preserve">
<style type="text/css">
	.st0{fill:#E47777;}
	.st1{fill:#E9E62B;}
	.st2{fill:#99CB4B;}
	.st3{fill:#72CDD9;}
	.st4{fill:#3C6EB4;}
</style>
<g>
	<path class="st0" d="M4.6,5.6c1-2.3,3.5-3.5,5.6-3c2,0.5,3.2,2.5,3.3,4.2c0.1,1-0.2,1.8-0.4,2.2c0.1-0.2,1.4-2.4,0.3-4.8
		c-0.1-0.3-1-2.1-3-2.7C8.8,1.2,6.9,1.6,5.7,2.9C4.8,3.9,4.6,5.2,4.6,5.6z"/>
	<path class="st1" d="M9.5,3.4c2.3,0.4,4,2.2,4.1,4.3c0.2,2.4-1.6,4.7-4.2,5.1c0.5,0,1.7,0.1,2.9-0.6c2-1.2,2.3-3.4,2.3-3.7
		c0.2-1.9-0.7-4.1-2.5-4.9C11,3.2,10,3.3,9.5,3.4z"/>
	<path class="st2" d="M12.7,8c0.1,2.6-1.8,4.9-4.2,5.3c-2.1,0.3-4.2-0.8-5.2-2.9c0,0,0,0,0,0c0.1,1.1,0.6,2.1,1.2,2.8
		c1.5,1.6,3.9,1.4,4,1.4c1.9-0.2,3.5-1.6,4.1-3.4C13.1,9.8,12.8,8.5,12.7,8z"/>
	<path class="st3" d="M9,12.1c-2.3,1-5.1,0-6.1-2.2c-1-2.1-0.2-4.7,1.9-6C4.2,4.1,3.3,4.4,2.6,5.2c-1.3,1.4-1.5,3.5-0.8,5.1
		c0.8,1.9,2.8,3.2,4.9,3C7.8,13.1,8.6,12.4,9,12.1z"/>
	<path class="st4" d="M4.7,10.6c-1.9-1.8-2-4.8-0.4-6.7c1.5-1.7,4.2-2.1,6.3-0.8c-0.3-0.4-0.8-0.9-1.5-1.3C7.3,1,4.9,1.5,3.4,3.2
		C1.9,4.9,1.9,7.3,2.9,8.9C3.5,9.9,4.3,10.4,4.7,10.6z"/>
	<path class="st0" d="M10.9,1.8v1.2c-0.2-0.1-0.5-0.2-0.7-0.3C8,2.1,5.5,3.3,4.6,5.6c0-0.5,0.2-1.7,1.1-2.7c1.2-1.3,3.1-1.7,4.7-1.3
		C10.6,1.7,10.7,1.7,10.9,1.8z"/>
</g>
</svg>
